<svg id="Layer_2" height="512" viewBox="0 0 128 128" width="512" xmlns="http://www.w3.org/2000/svg" data-name="Layer 2"><path d="m1.75 31.372h124.5a0 0 0 0 1 0 0v77.006a3 3 0 0 1 -3 3h-118.5a3 3 0 0 1 -3-3v-77.006a0 0 0 0 1 0 0z" fill="#ededed"/><path d="m126.25 31.372h-124.5v-11.75a3 3 0 0 1 3-3h118.5a3 3 0 0 1 3 3z" fill="#583377"/><path d="m11.75 41.372h104.5v15.35h-104.5z" fill="#ff4f9b"/><path d="m48.312 63.7h67.938v15.35h-67.938z" fill="#5a9ed1"/><path d="m48.312 86.029h67.938v15.35h-67.938z" fill="#5a9ed1"/><path d="m11.75 63.7h29.583v37.678h-29.583z" fill="#fcda42"/><path d="m33.333 33.122h4.333a1.75 1.75 0 0 0 0-3.5h-4.333a1.75 1.75 0 1 0 0 3.5z"/><path d="m123.25 14.872h-118.5a4.755 4.755 0 0 0 -4.75 4.75v88.757a4.755 4.755 0 0 0 4.75 4.75h118.5a4.755 4.755 0 0 0 4.75-4.75v-88.757a4.755 4.755 0 0 0 -4.75-4.75zm0 94.757h-118.5a1.251 1.251 0 0 1 -1.25-1.25v-75.257h20a1.75 1.75 0 0 0 0-3.5h-20v-10a1.251 1.251 0 0 1 1.25-1.25h118.5a1.251 1.251 0 0 1 1.25 1.25v10h-77a1.75 1.75 0 0 0 0 3.5h77v75.257a1.251 1.251 0 0 1 -1.25 1.249z"/><path d="m116.25 39.622h-104.5a1.75 1.75 0 0 0 -1.75 1.75v15.35a1.75 1.75 0 0 0 1.75 1.75h104.5a1.75 1.75 0 0 0 1.75-1.75v-15.35a1.75 1.75 0 0 0 -1.75-1.75zm-1.75 15.35h-101v-11.85h101z"/><path d="m116.25 61.95h-67.938a1.75 1.75 0 0 0 -1.75 1.75v15.35a1.75 1.75 0 0 0 1.75 1.75h67.938a1.75 1.75 0 0 0 1.75-1.75v-15.35a1.75 1.75 0 0 0 -1.75-1.75zm-1.75 15.35h-64.438v-11.85h64.438z"/><path d="m116.25 84.278h-67.938a1.75 1.75 0 0 0 -1.75 1.75v15.35a1.75 1.75 0 0 0 1.75 1.75h67.938a1.75 1.75 0 0 0 1.75-1.75v-15.35a1.75 1.75 0 0 0 -1.75-1.75zm-1.75 15.35h-64.438v-11.85h64.438z"/><path d="m41.333 61.95h-29.583a1.75 1.75 0 0 0 -1.75 1.75v18.05a1.75 1.75 0 0 0 3.5 0v-16.3h26.083v34.178h-26.083v-5a1.75 1.75 0 0 0 -3.5 0v6.753a1.75 1.75 0 0 0 1.75 1.75h29.583a1.75 1.75 0 0 0 1.75-1.75v-37.681a1.75 1.75 0 0 0 -1.75-1.75z"/><path d="m111.875 25.747h4.375a1.75 1.75 0 0 0 0-3.5h-4.375a1.75 1.75 0 0 0 0 3.5z"/><path d="m98.5 25.747h4.375a1.75 1.75 0 0 0 0-3.5h-4.375a1.75 1.75 0 0 0 0 3.5z"/><path d="m85.125 25.747h4.375a1.75 1.75 0 0 0 0-3.5h-4.375a1.75 1.75 0 0 0 0 3.5z"/></svg>